<?xml version="1.0" encoding="UTF-8" standalone="no"?>
<!-- Generator: Adobe Illustrator 19.0.0, SVG Export Plug-In . SVG Version: 6.00 Build 0)  -->

<svg
   version="1.1"
   id="Layer_1"
   x="0px"
   y="0px"
   viewBox="0 0 434.43639 713.71983"
   xml:space="preserve"
   sodipodi:docname="logo.svg"
   width="434.4364"
   height="713.71985"
   inkscape:version="1.1.1 (3bf5ae0d25, 2021-09-20)"
   xmlns:inkscape="http://www.inkscape.org/namespaces/inkscape"
   xmlns:sodipodi="http://sodipodi.sourceforge.net/DTD/sodipodi-0.dtd"
   xmlns="http://www.w3.org/2000/svg"
   xmlns:svg="http://www.w3.org/2000/svg"><defs
   id="defs55"><style
     id="style299">.cls-1,.cls-2,.cls-3{fill:none;}.cls-1{stroke:#5ac0e0;}.cls-1,.cls-2,.cls-3,.cls-6{stroke-linecap:round;stroke-linejoin:round;stroke-width:4px;}.cls-2{stroke:#76d1ff;}.cls-3,.cls-6{stroke:#000;}.cls-4,.cls-6{fill:#f4f4f4;}.cls-5{fill:#d6d6d6;}</style></defs><sodipodi:namedview
   id="namedview53"
   pagecolor="#ffffff"
   bordercolor="#666666"
   borderopacity="1.0"
   inkscape:pageshadow="2"
   inkscape:pageopacity="0.0"
   inkscape:pagecheckerboard="0"
   showgrid="false"
   fit-margin-top="0"
   fit-margin-left="0"
   fit-margin-right="0"
   fit-margin-bottom="0"
   inkscape:zoom="0.8486444"
   inkscape:cx="180.8767"
   inkscape:cy="369.41268"
   inkscape:window-width="1920"
   inkscape:window-height="1022"
   inkscape:window-x="0"
   inkscape:window-y="28"
   inkscape:window-maximized="1"
   inkscape:current-layer="Layer_1" />





<g
   id="g22"
   transform="translate(-34.79748,201.72687)">
</g>
<g
   id="g24"
   transform="translate(-34.79748,201.72687)">
</g>
<g
   id="g26"
   transform="translate(-34.79748,201.72687)">
</g>
<g
   id="g28"
   transform="translate(-34.79748,201.72687)">
</g>
<g
   id="g30"
   transform="translate(-34.79748,201.72687)">
</g>
<g
   id="g32"
   transform="translate(-34.79748,201.72687)">
</g>
<g
   id="g34"
   transform="translate(-34.79748,201.72687)">
</g>
<g
   id="g36"
   transform="translate(-34.79748,201.72687)">
</g>
<g
   id="g38"
   transform="translate(-34.79748,201.72687)">
</g>
<g
   id="g40"
   transform="translate(-34.79748,201.72687)">
</g>
<g
   id="g42"
   transform="translate(-34.79748,201.72687)">
</g>
<g
   id="g44"
   transform="translate(-34.79748,201.72687)">
</g>
<g
   id="g46"
   transform="translate(-34.79748,201.72687)">
</g>
<g
   id="g48"
   transform="translate(-34.79748,201.72687)">
</g>
<g
   id="g50"
   transform="translate(-34.79748,201.72687)">
</g>
<g
   id="g1722"
   transform="translate(-34.79748,201.72687)"><rect
     x="223.567"
     y="411.396"
     style="fill:#434a54"
     width="21.358999"
     height="79.220001"
     id="rect2" /><g
     id="g8">
	<path
   style="fill:#656d78"
   d="m 400.41,25.336 c -4.172,-4.172 -10.938,-4.172 -15.109,0 -4.171,4.172 -4.172,10.938 0,15.109 v 0 0 c 20.406,20.398 36.188,44.171 46.938,70.655 10.375,25.593 15.641,52.64 15.641,80.397 0,27.757 -5.266,54.804 -15.641,80.397 -10.75,26.477 -26.531,50.258 -46.938,70.662 -20.39,20.391 -44.17,36.188 -70.653,46.922 -25.594,10.375 -52.641,15.641 -80.39,15.641 -27.765,0 -54.812,-5.266 -80.405,-15.641 -26.484,-10.734 -50.25,-26.531 -70.655,-46.922 v 0 0 c -4.172,-4.186 -10.938,-4.186 -15.109,0 -4.172,4.156 -4.172,10.938 0,15.094 45.89,45.891 106.029,68.828 166.169,68.828 60.125,0 120.264,-22.938 166.153,-68.828 91.764,-91.763 91.764,-240.542 -10e-4,-332.314 z"
   id="path4" />
	<path
   style="fill:#656d78"
   d="M 319.71,490.617 H 148.806 c -5.891,0 -10.672,4.781 -10.672,10.688 0,5.907 4.781,10.688 10.672,10.688 H 319.71 c 5.89,0 10.671,-4.781 10.671,-10.688 0,-5.907 -4.781,-10.688 -10.671,-10.688 z"
   id="path6" />
</g><g
     style="opacity:0.2"
     id="g20">
	<path
   style="fill:#ffffff"
   d="m 234.257,0 c -3.594,0 -7.141,0.102 -10.688,0.297 100.795,5.547 180.825,89.022 180.825,191.2 0,102.186 -80.029,185.653 -180.825,191.2 3.547,0.203 7.094,0.297 10.688,0.297 105.764,0 191.497,-85.732 191.497,-191.497 C 425.754,85.734 340.021,0 234.257,0 Z"
   id="path18" />
</g><g
     id="g137"
     transform="matrix(1.1415791,0,0,1.1415791,-63.739062,-201.72757)"><path
       style="fill:#489b6d"
       d="m 388.208,61.76 c 3.508,-18.362 2.261,-37.291 -3.606,-54.741 -0.977,-2.907 -3.478,-5.042 -6.502,-5.551 -18.155,-3.056 -37.045,-1.319 -54.63,5.027 -18.091,6.528 -34.342,17.813 -46.994,32.635 -12.653,14.822 -21.249,32.641 -24.858,51.533 -3.508,18.362 -2.261,37.291 3.605,54.741 0.489,1.454 1.358,2.714 2.483,3.676 1.125,0.96 2.507,1.622 4.019,1.876 18.155,3.056 37.045,1.319 54.63,-5.026 18.091,-6.528 34.342,-17.813 46.994,-32.635 12.654,-14.824 21.249,-32.643 24.859,-51.535 z"
       id="path57" /><path
       style="fill:#a2ce86"
       d="m 378.1,1.468 c -18.155,-3.056 -37.045,-1.319 -54.63,5.027 -18.091,6.528 -34.342,17.813 -46.994,32.635 -12.653,14.822 -21.249,32.641 -24.858,51.533 -3.508,18.362 -2.261,37.291 3.605,54.741 0.489,1.454 1.358,2.714 2.483,3.676 0.047,0.04 0.096,0.075 0.142,0.114 L 382.254,3.467 C 381.104,2.441 379.675,1.733 378.1,1.468 Z"
       id="path59" /><path
       style="fill:#e56c1e"
       d="m 192.338,95.112 c -8.291,0 -14.974,6.722 -14.974,15.013 0,8.291 6.74,15.013 15.032,15.013 6.494,0 12.64,1.543 18.086,4.268 8.644,4.325 15.119,11.643 18.886,20.594 2.031,4.825 2.734,10.122 2.734,15.677 v 3.703 c 0,8.291 7.071,15.013 15.362,15.013 8.291,0 15.362,-6.722 15.362,-15.013 v -3.703 c 10e-4,-38.91 -31.579,-70.565 -70.488,-70.565 z"
       id="path61" /><circle
       style="fill:#91c0f1"
       cx="256.00101"
       cy="342.31299"
       r="169.677"
       id="circle63" /><path
       style="fill:#d7edf3"
       d="M 256,512 C 162.288,512 86.319,436.031 86.319,342.319 86.319,248.607 162.287,172.638 256,172.638 Z"
       id="path65" /><path
       style="fill:#a2ce86"
       d="m 180.988,401.343 2.494,-2.761 c 8.512,-9.42 8.349,-23.802 -0.376,-33.026 l -1.333,-1.41 c -5.715,-6.044 -7.947,-14.587 -5.917,-22.653 2.662,-10.577 -2.043,-21.634 -11.509,-27.052 L 99.771,275.994 c -8.661,20.375 -13.455,42.789 -13.455,66.322 0,66.797 38.603,124.569 94.711,152.25 l -5.971,-72.811 c -1.255,-7.351 0.93,-14.875 5.932,-20.412 z"
       id="path67" /><g
       id="g73">
	<path
   style="fill:#489b6d"
   d="m 375.844,222.2 -11.212,12.252 c -4.881,5.333 -11.691,8.492 -18.915,8.772 l -50.707,1.967 c -8.989,0.349 -17.216,5.141 -21.953,12.786 l -12.997,20.974 c -5.877,9.484 -5.331,21.601 1.373,30.518 l 8.073,10.735 c 6.128,8.149 9.416,18.081 9.364,28.277 l -0.172,33.277 c -0.091,17.526 15.675,30.88 32.948,27.908 l 36.965,-6.361 c 10.159,-1.748 19.453,-6.812 26.43,-14.401 v 0 c 12.413,-13.5 30.904,-17.988 47.354,-13.221 2.152,-10.79 3.289,-21.946 3.289,-33.369 -0.003,-46.921 -19.054,-89.397 -49.84,-120.114 z"
   id="path69" />
	<path
   style="fill:#489b6d"
   d="m 265.569,471.196 v 0 c -11.295,5.008 -17.784,17.012 -15.785,29.205 l 1.892,11.543 c 1.437,0.036 2.879,0.055 4.325,0.055 27.428,0 53.33,-6.516 76.259,-18.072 l -2.89,-4.306 c -13.975,-20.815 -40.882,-28.587 -63.801,-18.425 z"
   id="path71" />
</g><path
       style="fill:#a2ce86"
       d="M 182.751,239.791 217.17,220.42 c 5.413,-3.046 9.337,-8.183 10.852,-14.206 l 8.158,-32.419 c -38.676,4.501 -73.382,21.997 -99.632,48.021 l 21.393,16.267 c 7.19,5.465 16.94,6.137 24.81,1.708 z"
       id="path75" /><g
       id="g77">
</g><g
       id="g79">
</g><g
       id="g81">
</g><g
       id="g83">
</g><g
       id="g85">
</g><g
       id="g87">
</g><g
       id="g89">
</g><g
       id="g91">
</g><g
       id="g93">
</g><g
       id="g95">
</g><g
       id="g97">
</g><g
       id="g99">
</g><g
       id="g101">
</g><g
       id="g103">
</g><g
       id="g105">
</g></g></g></svg>
